<svg width="1500" height="1500" viewBox="0 0 1500 1500" fill="none" xmlns="http://www.w3.org/2000/svg">
<path d="M0 158C0 70.739 70.739 0 158 0H734V1500H158C70.739 1500 0 1429.26 0 1342V158Z" fill="#04125E"/>
<path d="M734 0H1342C1429.26 0 1500 70.739 1500 158V1342C1500 1429.26 1429.26 1500 1342 1500H734V0Z" fill="white"/>
<path d="M528.273 642.688C525.29 632.318 521.099 623.156 515.702 615.202C510.304 607.105 503.699 600.287 495.886 594.747C488.216 589.065 479.409 584.733 469.466 581.75C459.665 578.767 448.798 577.276 436.866 577.276C414.565 577.276 394.963 582.815 378.06 593.895C361.298 604.974 348.23 621.097 338.855 642.261C329.48 663.284 324.793 688.994 324.793 719.392C324.793 749.79 329.409 775.642 338.642 796.949C347.875 818.256 360.943 834.52 377.847 845.741C394.75 856.821 414.707 862.361 437.719 862.361C458.599 862.361 476.426 858.668 491.199 851.281C506.114 843.753 517.477 833.17 525.29 819.534C533.244 805.898 537.222 789.776 537.222 771.168L555.972 773.938H443.472V704.477H626.071V759.449C626.071 797.801 617.974 830.756 601.781 858.312C585.588 885.727 563.287 906.892 534.878 921.807C506.469 936.58 473.94 943.966 437.293 943.966C396.384 943.966 360.446 934.946 329.48 916.906C298.514 898.724 274.366 872.943 257.037 839.562C239.849 806.04 231.256 766.267 231.256 720.244C231.256 684.875 236.369 653.341 246.597 625.642C256.966 597.801 271.455 574.222 290.062 554.903C308.67 535.585 330.332 520.884 355.048 510.798C379.764 500.713 406.54 495.67 435.375 495.67C460.091 495.67 483.102 499.293 504.409 506.537C525.716 513.639 544.608 523.724 561.085 536.793C577.705 549.861 591.27 565.415 601.781 583.455C612.293 601.352 619.04 621.097 622.023 642.688H528.273Z" fill="white"/>
<path d="M1070.96 627.134C1069.25 609.946 1061.94 596.594 1049.01 587.077C1036.09 577.56 1018.54 572.801 996.384 572.801C981.327 572.801 968.614 574.932 958.244 579.193C947.875 583.312 939.92 589.065 934.381 596.452C928.983 603.838 926.284 612.219 926.284 621.594C926 629.406 927.634 636.224 931.185 642.048C934.878 647.872 939.92 652.915 946.312 657.176C952.705 661.295 960.091 664.918 968.472 668.043C976.852 671.026 985.801 673.582 995.318 675.713L1034.52 685.088C1053.56 689.349 1071.03 695.031 1086.94 702.134C1102.85 709.236 1116.63 717.972 1128.27 728.341C1139.92 738.71 1148.94 750.926 1155.33 764.989C1161.87 779.051 1165.2 795.173 1165.35 813.355C1165.2 840.06 1158.39 863.213 1144.89 882.815C1131.54 902.276 1112.22 917.403 1086.94 928.199C1061.8 938.852 1031.47 944.179 995.957 944.179C960.73 944.179 930.048 938.781 903.912 927.986C877.918 917.19 857.605 901.21 842.974 880.045C828.486 858.739 820.886 832.389 820.176 800.997H909.452C910.446 815.628 914.636 827.844 922.023 837.645C929.551 847.304 939.565 854.619 952.065 859.591C964.707 864.42 978.983 866.835 994.892 866.835C1010.52 866.835 1024.08 864.562 1035.59 860.017C1047.24 855.472 1056.26 849.151 1062.65 841.054C1069.04 832.957 1072.24 823.653 1072.24 813.142C1072.24 803.341 1069.32 795.102 1063.5 788.426C1057.82 781.75 1049.44 776.068 1038.36 771.381C1027.42 766.693 1014 762.432 998.088 758.597L950.574 746.665C913.784 737.716 884.736 723.724 863.429 704.69C842.122 685.656 831.54 660.017 831.682 627.773C831.54 601.352 838.571 578.27 852.776 558.526C867.122 538.781 886.795 523.369 911.795 512.29C936.795 501.21 965.205 495.67 997.023 495.67C1029.41 495.67 1057.68 501.21 1081.82 512.29C1106.11 523.369 1125.01 538.781 1138.5 558.526C1151.99 578.27 1158.95 601.139 1159.38 627.134H1070.96Z" fill="#04125E"/>
<rect x="700" y="865" width="69" height="69" rx="34.5" fill="white"/>
<path d="M734.5 865V865C753.554 865 769 880.446 769 899.5V899.5C769 918.554 753.554 934 734.5 934V934V865Z" fill="#04125E"/>
</svg>
